<?xml version="1.0" encoding="UTF-8" standalone="no"?>
<!DOCTYPE svg PUBLIC "-//W3C//DTD SVG 1.1//EN" "http://www.w3.org/Graphics/SVG/1.1/DTD/svg11.dtd">
<svg xmlns="http://www.w3.org/2000/svg" xmlns:xlink="http://www.w3.org/1999/xlink" version="1.1" width="281.783pt" height="145.415pt" viewBox="0 0 281.783 145.415">
<g enable-background="new">
<path transform="matrix(1,0,0,-1,53.122,30.411995)" stroke-width=".59776" stroke-linecap="butt" stroke-miterlimit="10" stroke-linejoin="miter" fill="none" stroke="#000000" d="M 12.45346 0 C 12.45346 6.87794 6.87794 12.45346 0 12.45346 C -6.87794 12.45346 -12.45346 6.87794 -12.45346 0 C -12.45346 -6.87794 -6.87794 -12.45346 0 -12.45346 C 6.87794 -12.45346 12.45346 -6.87794 12.45346 0 Z M 0 0 "/>
<symbol id="font_0_9">
<path d="M .41200004 .625 C .41200004 .62900009 .40900005 .635 .40200005 .635 C .39100004 .635 .35100005 .595 .33400003 .566 C .31200005 .62 .27300004 .63600006 .24100001 .63600006 C .122999999 .63600006 0 .488 0 .343 C 0 .245 .059000005 .183 .132 .183 C .175 .183 .214 .207 .25000004 .243 C .24100001 .208 .208 .073 .205 .063999999 C .19700001 .036 .18900001 .032000007 .133 .031000004 C .120000008 .031000004 .11 .031000004 .11 .0109999929 C .11 .00999999 .11 0 .122999999 0 C .155 0 .19 .0029999912 .223 .0029999912 C .25700004 .0029999912 .293 0 .32600004 0 C .33100004 0 .344 0 .344 .019999996 C .344 .031000004 .33400003 .031000004 .31800003 .031000004 C .27 .031000004 .27 .038000004 .27 .047000007 C .27 .054000006 .272 .060000004 .27400003 .069000009 L .41200004 .625 M .135 .20500002 C .075 .20500002 .07100001 .282 .07100001 .29900003 C .07100001 .347 .099999997 .45600004 .117 .49800004 C .148 .572 .2 .614 .24100001 .614 C .30600003 .614 .32000003 .533 .32000003 .526 C .32000003 .52 .26500003 .301 .26200003 .29700003 C .247 .269 .191 .20500002 .135 .20500002 Z "/>
</symbol>
<use xlink:href="#font_0_9" transform="matrix(9.9626,0,0,-9.9626,49.062505,33.520734)"/>
<symbol id="font_1_1">
<path d="M .46400006 .33900003 C .46400006 .44900004 .45100004 .528 .40500004 .598 C .374 .644 .31200005 .684 .23200001 .684 C 0 .684 0 .41100005 0 .33900003 C 0 .26700003 0 0 .23200001 0 C .46400006 0 .46400006 .26700003 .46400006 .33900003 M .23200001 .028 C .186 .028 .125 .055 .105000007 .13700001 C .091000009 .19600001 .091000009 .27800004 .091000009 .35200004 C .091000009 .42500005 .091000009 .50100007 .106000009 .556 C .127 .635 .19100002 .656 .23200001 .656 C .286 .656 .338 .623 .356 .565 C .37200005 .51100006 .37300004 .43900005 .37300004 .35200004 C .37300004 .27800004 .37300004 .20400001 .36 .141 C .34000004 .050000006 .272 .028 .23200001 .028 Z "/>
</symbol>
<use xlink:href="#font_1_1" transform="matrix(6.9738,0,0,-6.9738,53.473638,33.22147)"/>
<path transform="matrix(1,0,0,-1,53.122,30.411995)" stroke-width=".59776" stroke-linecap="butt" stroke-miterlimit="10" stroke-linejoin="miter" fill="none" stroke="#000000" d="M -25.6209 0 L -14.96408 0 "/>
<path transform="matrix(1,0,0,-1,38.15792,30.411995)" d="M .91655 0 C -.22913 .22913 -1.37483 .68741 -2.74966 1.4894 C -1.37483 .45827 -1.37483 -.45827 -2.74966 -1.4894 C -1.37483 -.68741 -.22913 -.22913 .91655 0 Z "/>
<path transform="matrix(1,0,0,-1,38.15792,30.411995)" stroke-width=".59776" stroke-linecap="butt" stroke-linejoin="round" fill="none" stroke="#000000" d="M .91655 0 C -.22913 .22913 -1.37483 .68741 -2.74966 1.4894 C -1.37483 .45827 -1.37483 -.45827 -2.74966 -1.4894 C -1.37483 -.68741 -.22913 -.22913 .91655 0 Z "/>
<symbol id="font_2_5">
<path d="M .17500001 .20500002 C .197 .20100002 .279 .18500002 .279 .113000009 C .279 .062000004 .24400002 .022000002 .16600001 .022000002 C .082 .022000002 .046000005 .079 .027000003 .16400002 C .024000004 .17700002 .023000002 .18100001 .013000004 .18100001 C 0 .18100001 0 .17400001 0 .15600002 L 0 .024 C 0 .0070000009 0 0 .011000004 0 C .016000003 0 .017 .0010000002 .036000007 .020000002 C .038000004 .022000002 .038000004 .024 .056 .043 C .1 .0010000002 .14500001 0 .16600001 0 C .28100003 0 .32700003 .067 .32700003 .13900002 C .32700003 .19200002 .29700003 .22200002 .28500004 .23400001 C .25200004 .26600004 .213 .27400003 .171 .28200004 C .115 .293 .048 .30600003 .048 .36400003 C .048 .39900003 .07400001 .44000004 .16 .44000004 C .27 .44000004 .27500005 .35000003 .277 .31900005 C .27800004 .31000004 .28700004 .31000004 .28900004 .31000004 C .30200003 .31000004 .30200003 .31500004 .30200003 .33400003 L .30200003 .43500004 C .30200003 .45200003 .30200003 .45900003 .291 .45900003 C .286 .45900003 .284 .45900003 .27100004 .44700004 C .26800005 .44300003 .25800003 .43400003 .254 .43100003 C .21600002 .45900003 .17500001 .45900003 .16 .45900003 C .038000004 .45900003 0 .39200003 0 .33600004 C 0 .30100004 .016000003 .27300004 .043000007 .25100003 C .075 .22500003 .10300001 .21900001 .17500001 .20500002 Z "/>
</symbol>
<symbol id="font_2_6">
<path d="M .15400002 .411 L .29700003 .411 L .29700003 .44200004 L .15400002 .44200004 L .15400002 .626 L .12900001 .626 C .12799999 .544 .098000008 .43700005 0 .43300004 L 0 .411 L .085 .411 L .085 .135 C .085 .012000001 .178 0 .21400002 0 C .28500004 0 .31300003 .071 .31300003 .135 L .31300003 .19200002 L .28800003 .19200002 L .28800003 .13700001 C .28800003 .063 .25800003 .025000003 .22100002 .025000003 C .15400002 .025000003 .15400002 .116000007 .15400002 .13300002 L .15400002 .411 Z "/>
</symbol>
<symbol id="font_2_3">
<path d="M .291 .087000008 C .29500003 .047000003 .32200004 .005000001 .36900003 .005000001 C .39000003 .005000001 .45100004 .019000002 .45100004 .1 L .45100004 .15600002 L .42600004 .15600002 L .42600004 .1 C .42600004 .042000005 .40100003 .036000004 .39000003 .036000004 C .35700003 .036000004 .35300002 .081 .35300002 .086 L .35300002 .286 C .35300002 .328 .35300002 .367 .31700004 .404 C .27800004 .44300003 .22800002 .45900003 .18 .45900003 C .098 .45900003 .029 .41200004 .029 .34600003 C .029 .316 .049000004 .29900003 .075 .29900003 C .10300001 .29900003 .121 .31900005 .121 .34500004 C .121 .35700003 .116000007 .39000003 .07 .39100004 C .09700001 .42600004 .146 .43700005 .178 .43700005 C .22700003 .43700005 .284 .39800004 .284 .30900003 L .284 .272 C .23300001 .26900003 .16300002 .26600004 .1 .23600002 C .024999999 .20200002 0 .15000002 0 .106000009 C 0 .025000003 .09700001 0 .16 0 C .22600001 0 .272 .040000004 .291 .087000008 M .284 .25100003 L .284 .15100001 C .284 .056 .21200001 .022000002 .167 .022000002 C .11800001 .022000002 .077 .057000005 .077 .107 C .077 .16200002 .11900001 .24500002 .284 .25100003 Z "/>
</symbol>
<symbol id="font_2_4">
<path d="M .13900002 .33200003 L .13900002 .44200004 L 0 .43100003 L 0 .4 C .07000001 .4 .07800001 .393 .07800001 .344 L .07800001 .076000008 C .07800001 .031000002 .067 .031000002 0 .031000002 L 0 0 C .039 .001 .08600001 .003 .11400001 .003 C .15400002 .003 .20100002 .003 .24100003 0 L .24100003 .031000002 L .22000002 .031000002 C .14600002 .031000002 .14400001 .042000005 .14400001 .078 L .14400001 .23200001 C .14400001 .33100004 .18600002 .42000003 .26200003 .42000003 C .26900003 .42000003 .27100004 .42000003 .27300004 .41900004 C .27 .418 .25000004 .40600003 .25000004 .38000003 C .25000004 .35200004 .27100004 .337 .293 .337 C .31100003 .337 .33600004 .349 .33600004 .381 C .33600004 .41300003 .305 .44200004 .26200003 .44200004 C .18900001 .44200004 .15300001 .37500004 .13900002 .33200003 Z "/>
</symbol>
<use xlink:href="#font_2_5" transform="matrix(9.9626,0,0,-9.9626,3.6497689,33.58558)"/>
<use xlink:href="#font_2_6" transform="matrix(9.9626,0,0,-9.9626,7.435557,33.58558)"/>
<use xlink:href="#font_2_3" transform="matrix(9.9626,0,0,-9.9626,11.540148,33.58558)"/>
<use xlink:href="#font_2_4" transform="matrix(9.9626,0,0,-9.9626,16.381974,33.47599)"/>
<use xlink:href="#font_2_6" transform="matrix(9.9626,0,0,-9.9626,20.197648,33.58558)"/>
<path transform="matrix(1,0,0,-1,53.122,30.411995)" stroke-width=".59776" stroke-linecap="butt" stroke-miterlimit="10" stroke-linejoin="miter" fill="none" stroke="#000000" d="M 83.32051 0 C 83.32051 6.87794 77.745 12.45346 70.86703 12.45346 C 63.98909 12.45346 58.41356 6.87794 58.41356 0 C 58.41356 -6.87794 63.98909 -12.45346 70.86703 -12.45346 C 77.745 -12.45346 83.32051 -6.87794 83.32051 0 Z M 70.86703 0 "/>
<use xlink:href="#font_0_9" transform="matrix(9.9626,0,0,-9.9626,119.928508,33.520734)"/>
<symbol id="font_1_2">
<path d="M .22600001 .63600006 C .22600001 .66300007 .224 .66400006 .19600001 .66400006 C .132 .601 .041 .6 0 .6 L 0 .564 C .023999997 .564 .09000001 .564 .14500001 .592 L .14500001 .082 C .14500001 .049000004 .14500001 .036000004 .04500001 .036000004 L .0069999995 .036000004 L .0069999995 0 C .024999999 .001 .148 .004 .185 .004 C .21600002 .004 .34200005 .001 .36400003 0 L .36400003 .036000004 L .32600004 .036000004 C .22600001 .036000004 .22600001 .049000004 .22600001 .082 L .22600001 .63600006 Z "/>
</symbol>
<use xlink:href="#font_1_2" transform="matrix(6.9738,0,0,-6.9738,124.737148,33.081995)"/>
<path transform="matrix(1,0,0,-1,53.122,30.411995)" stroke-width=".59776" stroke-linecap="butt" stroke-miterlimit="10" stroke-linejoin="miter" fill="none" stroke="#000000" d="M 154.18756 0 C 154.18756 6.87794 148.61205 12.45346 141.73409 12.45346 C 134.85614 12.45346 129.28061 6.87794 129.28061 0 C 129.28061 -6.87794 134.85614 -12.45346 141.73409 -12.45346 C 148.61205 -12.45346 154.18756 -6.87794 154.18756 0 Z M 141.73409 0 "/>
<use xlink:href="#font_0_9" transform="matrix(9.9626,0,0,-9.9626,190.7945,33.520734)"/>
<symbol id="font_1_3">
<path d="M .442 .18200001 L .40800003 .18200001 C .40500004 .16000001 .39500005 .101 .38200004 .091000009 C .374 .085 .29700003 .085 .28300003 .085 L .099 .085 C .20400003 .178 .23900002 .20600002 .29900003 .25300003 C .37300004 .312 .442 .374 .442 .469 C .442 .59000006 .33600004 .66400006 .20800004 .66400006 C .084 .66400006 0 .577 0 .485 C 0 .43400003 .043000007 .42900003 .053000004 .42900003 C .077 .42900003 .10600001 .446 .10600001 .48200003 C .10600001 .5 .099 .535 .047000007 .535 C .078 .606 .146 .628 .19300002 .628 C .293 .628 .34500004 .55 .34500004 .469 C .34500004 .38200004 .28300003 .31300003 .25100003 .277 L .010000005 .039 C 0 .030000002 0 .028 0 0 L .41200004 0 L .442 .18200001 Z "/>
</symbol>
<use xlink:href="#font_1_3" transform="matrix(6.9738,0,0,-6.9738,195.28334,33.081995)"/>
<path transform="matrix(1,0,0,-1,53.122,30.411995)" stroke-width=".59776" stroke-linecap="butt" stroke-miterlimit="10" stroke-linejoin="miter" fill="none" stroke="#000000" d="M 154.18756 -70.86703 C 154.18756 -63.98909 148.61205 -58.41356 141.73409 -58.41356 C 134.85614 -58.41356 129.28061 -63.98909 129.28061 -70.86703 C 129.28061 -77.745 134.85614 -83.32051 141.73409 -83.32051 C 148.61205 -83.32051 154.18756 -77.745 154.18756 -70.86703 Z M 141.73409 -70.86703 "/>
<use xlink:href="#font_0_9" transform="matrix(9.9626,0,0,-9.9626,190.7945,104.38674)"/>
<symbol id="font_1_4">
<path d="M .219 .35400004 C .29700003 .35400004 .35300002 .3 .35300002 .193 C .35300002 .069000009 .28100003 .032 .223 .032 C .18300002 .032 .095 .043000007 .053000008 .102000009 C .10000001 .10400001 .111 .13700001 .111 .158 C .111 .19 .087 .213 .056000007 .213 C .028 .213 0 .19600001 0 .155 C 0 .061000006 .104 0 .22500001 0 C .36400003 0 .46 .09300001 .46 .193 C .46 .27100004 .39600004 .34900005 .286 .37200005 C .39100004 .41000004 .42900003 .48500005 .42900003 .546 C .42900003 .625 .33800004 .684 .22700002 .684 C .116 .684 .031 .63 .031 .55 C .031 .51600006 .053000008 .49700005 .083000008 .49700005 C .11400001 .49700005 .134 .52 .134 .548 C .134 .577 .11400001 .598 .083000008 .6 C .118 .644 .187 .65500006 .22400002 .65500006 C .26900003 .65500006 .33200003 .633 .33200003 .546 C .33200003 .504 .31800003 .45800004 .29200004 .42700003 C .25900004 .38900004 .23100002 .38700003 .18100001 .38400004 C .156 .38200004 .154 .38200004 .149 .38100005 C .147 .38100005 .139 .37900005 .139 .36800004 C .139 .35400004 .148 .35400004 .165 .35400004 L .219 .35400004 Z "/>
</symbol>
<use xlink:href="#font_1_4" transform="matrix(6.9738,0,0,-6.9738,195.22058,104.08846)"/>
<path transform="matrix(1,0,0,-1,53.122,30.411995)" stroke-width=".59776" stroke-linecap="butt" stroke-miterlimit="10" stroke-linejoin="miter" fill="none" stroke="#000000" d="M 83.32051 -70.86703 C 83.32051 -63.98909 77.745 -58.41356 70.86703 -58.41356 C 63.98909 -58.41356 58.41356 -63.98909 58.41356 -70.86703 C 58.41356 -77.745 63.98909 -83.32051 70.86703 -83.32051 C 77.745 -83.32051 83.32051 -77.745 83.32051 -70.86703 Z M 70.86703 -70.86703 "/>
<use xlink:href="#font_0_9" transform="matrix(9.9626,0,0,-9.9626,119.928508,104.38674)"/>
<symbol id="font_1_5">
<path d="M .49000005 .164 L .49000005 .2 L .379 .2 L .379 .646 C .379 .66700008 .379 .674 .35700003 .674 C .345 .674 .34100003 .674 .331 .66 L 0 .2 L 0 .164 L .294 .164 L .294 .082 C .294 .048 .294 .036000004 .213 .036000004 L .186 .036000004 L .186 0 C .236 .002 .3 .004 .33600004 .004 C .37300004 .004 .437 .002 .48700003 0 L .48700003 .036000004 L .46 .036000004 C .379 .036000004 .379 .048 .379 .082 L .379 .164 L .49000005 .164 M .301 .56600007 L .301 .2 L .037000006 .2 L .301 .56600007 Z "/>
</symbol>
<use xlink:href="#font_1_5" transform="matrix(6.9738,0,0,-6.9738,124.24898,103.948)"/>
<path transform="matrix(1,0,0,-1,53.122,30.411995)" stroke-width="1.7933" stroke-linecap="butt" stroke-miterlimit="10" stroke-linejoin="miter" fill="none" stroke="#000000" d="M 12.45346 -70.86703 C 12.45346 -63.98909 6.87794 -58.41356 0 -58.41356 C -6.87794 -58.41356 -12.45346 -63.98909 -12.45346 -70.86703 C -12.45346 -77.745 -6.87794 -83.32051 0 -83.32051 C 6.87794 -83.32051 12.45346 -77.745 12.45346 -70.86703 Z M 0 -70.86703 "/>
<path transform="matrix(1,0,0,-1,53.122,30.411995)" stroke-width=".59776" stroke-linecap="butt" stroke-miterlimit="10" stroke-linejoin="miter" fill="none" stroke="#ffffff" d="M 12.45346 -70.86703 C 12.45346 -63.98909 6.87794 -58.41356 0 -58.41356 C -6.87794 -58.41356 -12.45346 -63.98909 -12.45346 -70.86703 C -12.45346 -77.745 -6.87794 -83.32051 0 -83.32051 C 6.87794 -83.32051 12.45346 -77.745 12.45346 -70.86703 Z M 0 -70.86703 "/>
<use xlink:href="#font_0_9" transform="matrix(9.9626,0,0,-9.9626,49.062505,104.38674)"/>
<symbol id="font_1_6">
<path d="M .092 .578 C .143 .565 .17300001 .565 .18900001 .565 C .321 .565 .39900003 .65500006 .39900003 .67 C .39900003 .681 .39200003 .684 .38700003 .684 C .38500003 .684 .38300003 .684 .37900005 .681 C .35500003 .672 .30200003 .652 .22800002 .652 C .20000002 .652 .14700002 .654 .08200001 .679 C .072000008 .684 .07 .684 .069 .684 C .056 .684 .056 .67300006 .056 .657 L .056 .36200003 C .056 .34500004 .056 .33300004 .072000008 .33300004 C .08100001 .33300004 .08200001 .33500005 .092 .34700004 C .13500002 .40200005 .19600001 .41000004 .231 .41000004 C .291 .41000004 .31800003 .36200003 .323 .35400004 C .34100003 .32100005 .34700004 .28300003 .34700004 .22500001 C .34700004 .19500001 .34700004 .136 .31700004 .09200001 C .29200004 .056 .24900002 .032 .20000002 .032 C .13500002 .032 .06800001 .068 .043000007 .134 C .08100001 .13100001 .1 .156 .1 .183 C .1 .22600001 .063 .23400001 .050000006 .23400001 C .048000009 .23400001 0 .23400001 0 .18 C 0 .09 .08200001 0 .20200002 0 C .33 0 .442 .095000009 .442 .221 C .442 .33400003 .35600005 .43800003 .23200003 .43800003 C .18800003 .43800003 .136 .42700003 .092 .38900004 L .092 .578 Z "/>
</symbol>
<use xlink:href="#font_1_6" transform="matrix(6.9738,0,0,-6.9738,53.55035,104.08747)"/>
<path transform="matrix(1,0,0,-1,53.122,30.411995)" stroke-width=".59776" stroke-linecap="butt" stroke-miterlimit="10" stroke-linejoin="miter" fill="none" stroke="#000000" d="M 11.0437 6.37598 C 27.51778 15.88727 43.34926 15.88727 57.90796 7.4818 "/>
<path transform="matrix(.86601,.49998,.49998,-.86601,111.02996,22.930195)" d="M .91655 0 C -.22913 .22913 -1.37483 .68741 -2.74966 1.4894 C -1.37483 .45827 -1.37483 -.45827 -2.74966 -1.4894 C -1.37483 -.68741 -.22913 -.22913 .91655 0 Z "/>
<path transform="matrix(.86601,.49998,.49998,-.86601,111.02996,22.930195)" stroke-width=".59776" stroke-linecap="butt" stroke-linejoin="round" fill="none" stroke="#000000" d="M .91655 0 C -.22913 .22913 -1.37483 .68741 -2.74966 1.4894 C -1.37483 .45827 -1.37483 -.45827 -2.74966 -1.4894 C -1.37483 -.68741 -.22913 -.22913 .91655 0 Z "/>
<symbol id="font_0_6">
<path d="M .33300004 .38900004 C .31500004 .42600004 .286 .45300005 .24100001 .45300005 C .124 .45300005 0 .30600003 0 .16000001 C 0 .06600001 .055000005 0 .133 0 C .153 0 .20300001 .0040000008 .263 .075 C .27100004 .033000005 .30600003 0 .35400004 0 C .38900004 0 .41200004 .023000002 .42800004 .055000005 C .44500003 .091000009 .45800004 .15200001 .45800004 .15400002 C .45800004 .16400002 .44900004 .16400002 .44600005 .16400002 C .43600003 .16400002 .43500004 .16000001 .43200005 .14600002 C .41500003 .081 .397 .022000002 .35600005 .022000002 C .32900004 .022000002 .32600004 .048 .32600004 .068 C .32600004 .09 .32800005 .098000008 .33900003 .14200002 C .35000003 .18400002 .35200004 .19400002 .36100004 .23200003 L .397 .37200005 C .40400005 .40000005 .40400005 .40200005 .40400005 .40600003 C .40400005 .42300005 .39200003 .43300004 .37500004 .43300004 C .35100005 .43300004 .33600004 .411 .33300004 .38900004 M .26800005 .13000001 C .263 .112 .263 .11000001 .24800001 .093 C .20400001 .038000004 .163 .022000002 .135 .022000002 C .08499999 .022000002 .07100001 .077 .07100001 .116000007 C .07100001 .16600001 .103 .28900004 .126 .335 C .157 .39400003 .202 .43100003 .242 .43100003 C .307 .43100003 .32100005 .34900005 .32100005 .34300003 C .32100005 .337 .31900005 .33100004 .31800003 .32600004 L .26800005 .13000001 Z "/>
</symbol>
<symbol id="font_0_2">
<path d="M .117000009 .194 C .117000009 .26 .092 .29900003 .05300001 .29900003 C .020000004 .29900003 0 .274 0 .246 C 0 .21900001 .020000004 .193 .05300001 .193 C .065000008 .193 .078 .197 .08800001 .206 C .091 .208 .092 .209 .093 .209 C .094000007 .209 .095000009 .208 .095000009 .194 C .095000009 .12 .06000001 .060000004 .027000003 .026999996 C .016000003 .016000003 .016000003 .013999999 .016000003 .0109999929 C .016000003 .003999993 .021000006 0 .026 0 C .037 0 .117000009 .077 .117000009 .194 Z "/>
</symbol>
<symbol id="font_0_5">
<path d="M .662 .65900006 C .663 .66300007 .665 .66800007 .665 .674 C .665 .683 .66 .683 .64 .683 L .21800003 .683 C .194 .683 .19300002 .68200007 .187 .66300007 L .13200002 .483 C .13000001 .47800002 .12900001 .47100003 .12900001 .469 C .12900001 .46800003 .12900001 .45800004 .14100002 .45800004 C .15 .45800004 .15200001 .46500004 .15400002 .46800003 C .192 .586 .24400002 .652 .40000005 .652 L .563 .652 L .0040000008 .027 C .0040000008 .026 0 .012 0 .009000001 C 0 0 .007000003 0 .025000003 0 L .46 0 C .48400007 0 .48500005 .001 .49100004 .020000002 L .562 .24100001 C .563 .245 .566 .252 .566 .256 C .566 .261 .562 .26700003 .553 .26700003 C .544 .26700003 .543 .263 .536 .24200002 C .492 .106000009 .44400005 .034 .27400003 .034 L .103000018 .034 L .662 .65900006 Z "/>
</symbol>
<use xlink:href="#font_0_6" transform="matrix(9.9626,0,0,-9.9626,62.735506,10.901581)"/>
<use xlink:href="#font_0_2" transform="matrix(9.9626,0,0,-9.9626,68.464,12.714774)"/>
<use xlink:href="#font_0_5" transform="matrix(9.9626,0,0,-9.9626,72.6184,10.791992)"/>
<use xlink:href="#font_1_1" transform="matrix(6.9738,0,0,-6.9738,79.19464,12.426463)"/>
<symbol id="font_2_2">
<path d="M .38200004 .962 C .38700003 .975 .38700003 .97800007 .38700003 .98 C .38700003 .99100008 .37800003 1 .367 1 C .35300002 1 .34900005 .99 .34600003 .98 L .0050000029 .037999989 C 0 .024999991 0 .021999985 0 .019999996 C 0 .008999988 .009000003 0 .020000004 0 C .034 0 .038000004 .00999999 .041 .019999996 L .38200004 .962 Z "/>
</symbol>
<use xlink:href="#font_2_2" transform="matrix(9.9626,0,0,-9.9626,83.85891,13.282642)"/>
<symbol id="font_0_3">
<path d="M .14400001 .115 C .10400002 .048 .065 .034 .021000002 .031000002 C .009000003 .030000002 0 .030000002 0 .011000001 C 0 .0050000005 .0050000029 0 .013 0 C .040000004 0 .07100001 .003 .09900001 .003 C .13200002 .003 .16700001 0 .19900002 0 C .20500002 0 .21800003 0 .21800003 .019000002 C .21800003 .030000002 .20900002 .031000002 .20200002 .031000002 C .17900002 .033 .15500002 .041 .15500002 .066 C .15500002 .078 .16100002 .089 .16900002 .10300001 L .245 .231 L .49600003 .231 C .49800007 .21000001 .512 .074 .512 .064 C .512 .034 .46000005 .031000002 .44000004 .031000002 C .42600004 .031000002 .41600005 .031000002 .41600005 .011000001 C .41600005 0 .42800004 0 .43000005 0 C .47100006 0 .514 .003 .555 .003 C .58 .003 .643 0 .668 0 C .674 0 .686 0 .686 .020000002 C .686 .031000002 .676 .031000002 .663 .031000002 C .601 .031000002 .601 .038000004 .598 .067 L .537 .69200006 C .535 .712 .535 .716 .518 .716 C .502 .716 .49800007 .70900008 .492 .69900009 L .14400001 .115 M .26400004 .26200003 L .46100004 .592 L .493 .26200003 L .26400004 .26200003 Z "/>
</symbol>
<use xlink:href="#font_0_3" transform="matrix(9.9626,0,0,-9.9626,88.6317,10.791992)"/>
<use xlink:href="#font_0_5" transform="matrix(9.9626,0,0,-9.9626,96.33279,10.791992)"/>
<use xlink:href="#font_1_1" transform="matrix(6.9738,0,0,-6.9738,102.91765,12.426463)"/>
<symbol id="font_2_1">
<path d="M .117000009 .194 C .117000009 .25800003 .093 .29900003 .05300001 .29900003 C .018 .29900003 0 .272 0 .246 C 0 .22 .017000005 .193 .05300001 .193 C .069 .193 .08100001 .199 .091 .207 L .093 .209 C .094000007 .209 .095000009 .208 .095000009 .194 C .095000009 .13 .06700001 .069 .023000002 .022 C .017000005 .016000003 .016000003 .015000001 .016000003 .0109999929 C .016000003 .003999993 .021000006 0 .026 0 C .038000004 0 .117000009 .078999999 .117000009 .194 Z "/>
</symbol>
<use xlink:href="#font_2_1" transform="matrix(9.9626,0,0,-9.9626,107.88179,12.714774)"/>
<use xlink:href="#font_2_3" transform="matrix(9.9626,0,0,-9.9626,110.213039,10.901581)"/>
<path transform="matrix(1,0,0,-1,53.122,30.411995)" stroke-width=".59776" stroke-linecap="butt" stroke-miterlimit="10" stroke-linejoin="miter" fill="none" stroke="#000000" d="M 74.1672 -12.31784 C 79.4966 -32.20718 62.23749 -32.20718 66.99452 -14.45418 "/>
<path transform="matrix(.25879,-.96593,-.96593,-.25879,120.1165,44.866174)" d="M .91655 0 C -.22913 .22913 -1.37483 .68741 -2.74966 1.4894 C -1.37483 .45827 -1.37483 -.45827 -2.74966 -1.4894 C -1.37483 -.68741 -.22913 -.22913 .91655 0 Z "/>
<path transform="matrix(.25879,-.96593,-.96593,-.25879,120.1165,44.866174)" stroke-width=".59776" stroke-linecap="butt" stroke-linejoin="round" fill="none" stroke="#000000" d="M .91655 0 C -.22913 .22913 -1.37483 .68741 -2.74966 1.4894 C -1.37483 .45827 -1.37483 -.45827 -2.74966 -1.4894 C -1.37483 -.68741 -.22913 -.22913 .91655 0 Z "/>
<use xlink:href="#font_0_6" transform="matrix(9.9626,0,0,-9.9626,100.99451,68.84758)"/>
<use xlink:href="#font_0_2" transform="matrix(9.9626,0,0,-9.9626,106.723,70.660778)"/>
<use xlink:href="#font_0_3" transform="matrix(9.9626,0,0,-9.9626,110.64827,68.73799)"/>
<use xlink:href="#font_2_2" transform="matrix(9.9626,0,0,-9.9626,118.31991,71.22864)"/>
<use xlink:href="#font_0_3" transform="matrix(9.9626,0,0,-9.9626,123.0917,68.73799)"/>
<use xlink:href="#font_0_3" transform="matrix(9.9626,0,0,-9.9626,130.56365,68.73799)"/>
<use xlink:href="#font_0_2" transform="matrix(9.9626,0,0,-9.9626,138.54369,70.660778)"/>
<use xlink:href="#font_0_6" transform="matrix(9.9626,0,0,-9.9626,142.51877,68.84758)"/>
<path transform="matrix(1,0,0,-1,53.122,30.411995)" stroke-width=".59776" stroke-linecap="butt" stroke-miterlimit="10" stroke-linejoin="miter" fill="none" stroke="#000000" d="M 81.91075 6.37598 C 98.38483 15.88727 114.21631 15.88727 128.77501 7.4818 "/>
<path transform="matrix(.86601,.49998,.49998,-.86601,181.897,22.930195)" d="M .91655 0 C -.22913 .22913 -1.37483 .68741 -2.74966 1.4894 C -1.37483 .45827 -1.37483 -.45827 -2.74966 -1.4894 C -1.37483 -.68741 -.22913 -.22913 .91655 0 Z "/>
<path transform="matrix(.86601,.49998,.49998,-.86601,181.897,22.930195)" stroke-width=".59776" stroke-linecap="butt" stroke-linejoin="round" fill="none" stroke="#000000" d="M .91655 0 C -.22913 .22913 -1.37483 .68741 -2.74966 1.4894 C -1.37483 .45827 -1.37483 -.45827 -2.74966 -1.4894 C -1.37483 -.68741 -.22913 -.22913 .91655 0 Z "/>
<symbol id="font_0_7">
<path d="M .192 .694 C .192 .695 .192 .705 .179 .705 C .156 .705 .083000008 .697 .057 .695 C .049 .694 .038 .693 .038 .675 C .038 .663 .047000003 .663 .062000004 .663 C .11 .663 .112 .656 .112 .646 C .112 .639 .103 .605 .098000008 .584 L .015999999 .25800003 C .0040000008 .20800002 0 .19200002 0 .15700002 C 0 .062000004 .053 0 .127 0 C .24500002 0 .36800004 .14900002 .36800004 .293 C .36800004 .38400004 .31500004 .45300005 .235 .45300005 C .18900001 .45300005 .148 .42400003 .118 .39300005 L .192 .694 M .098000008 .316 C .104 .33800004 .104 .34000004 .113000009 .351 C .162 .41600005 .207 .43100003 .233 .43100003 C .26900003 .43100003 .29600004 .40100003 .29600004 .337 C .29600004 .27800004 .263 .16300002 .24500002 .12500002 C .212 .058000003 .16600001 .022000002 .127 .022000002 C .092999998 .022000002 .060000007 .049000004 .060000007 .123 C .060000007 .14200002 .060000007 .16100002 .076000008 .22400002 L .098000008 .316 Z "/>
</symbol>
<use xlink:href="#font_0_7" transform="matrix(9.9626,0,0,-9.9626,142.93724,10.902588)"/>
<use xlink:href="#font_0_2" transform="matrix(9.9626,0,0,-9.9626,147.59973,12.715781)"/>
<use xlink:href="#font_0_3" transform="matrix(9.9626,0,0,-9.9626,151.52501,10.792999)"/>
<use xlink:href="#font_2_2" transform="matrix(9.9626,0,0,-9.9626,159.2029,13.283649)"/>
<symbol id="font_0_1">
<path d="M .25100003 .23700002 C .26700003 .23700002 .28500004 .23700002 .28500004 .254 C .28500004 .268 .27300004 .268 .256 .268 L .094 .268 C .118 .35300002 .17400001 .411 .26500003 .411 L .29600004 .411 C .31300003 .411 .32900004 .411 .32900004 .42800004 C .32900004 .44200004 .316 .44200004 .29900003 .44200004 L .26400004 .44200004 C .134 .44200004 0 .34200005 0 .18900001 C 0 .079 .075 0 .18100001 0 C .246 0 .31100003 .040000004 .31100003 .051000004 C .31100003 .054 .31000004 .065000008 .30100004 .065000008 C .29900003 .065000008 .29700003 .065000008 .28800003 .059 C .25700004 .039 .22000002 .022000002 .183 .022000002 C .125 .022000002 .075 .064 .075 .15200001 C .075 .18700002 .083000008 .22500003 .085999999 .23700002 L .25100003 .23700002 Z "/>
</symbol>
<use xlink:href="#font_0_1" transform="matrix(9.9626,0,0,-9.9626,164.09424,10.902588)"/>
<use xlink:href="#font_0_2" transform="matrix(9.9626,0,0,-9.9626,168.52759,12.715781)"/>
<use xlink:href="#font_0_7" transform="matrix(9.9626,0,0,-9.9626,172.57242,10.902588)"/>
<path transform="matrix(1,0,0,-1,53.122,30.411995)" stroke-width=".59776" stroke-linecap="butt" stroke-miterlimit="10" stroke-linejoin="miter" fill="none" stroke="#000000" d="M 154.05193 3.30016 C 173.94127 8.62955 173.94127 -8.62955 156.18828 -3.87251 "/>
<path transform="matrix(-.96593,-.25879,-.25879,.96593,209.31027,34.284524)" d="M .91655 0 C -.22913 .22913 -1.37483 .68741 -2.74966 1.4894 C -1.37483 .45827 -1.37483 -.45827 -2.74966 -1.4894 C -1.37483 -.68741 -.22913 -.22913 .91655 0 Z "/>
<path transform="matrix(-.96593,-.25879,-.25879,.96593,209.31027,34.284524)" stroke-width=".59776" stroke-linecap="butt" stroke-linejoin="round" fill="none" stroke="#000000" d="M .91655 0 C -.22913 .22913 -1.37483 .68741 -2.74966 1.4894 C -1.37483 .45827 -1.37483 -.45827 -2.74966 -1.4894 C -1.37483 -.68741 -.22913 -.22913 .91655 0 Z "/>
<use xlink:href="#font_0_7" transform="matrix(9.9626,0,0,-9.9626,226.17626,33.01258)"/>
<use xlink:href="#font_0_2" transform="matrix(9.9626,0,0,-9.9626,230.83875,34.825777)"/>
<use xlink:href="#font_0_3" transform="matrix(9.9626,0,0,-9.9626,234.76403,32.902994)"/>
<use xlink:href="#font_2_2" transform="matrix(9.9626,0,0,-9.9626,242.44191,35.393644)"/>
<use xlink:href="#font_0_1" transform="matrix(9.9626,0,0,-9.9626,247.33325,33.01258)"/>
<use xlink:href="#font_0_2" transform="matrix(9.9626,0,0,-9.9626,251.7666,34.825777)"/>
<use xlink:href="#font_0_7" transform="matrix(9.9626,0,0,-9.9626,255.81143,33.01258)"/>
<path transform="matrix(1,0,0,-1,53.122,30.411995)" stroke-width=".59776" stroke-linecap="butt" stroke-miterlimit="10" stroke-linejoin="miter" fill="none" stroke="#000000" d="M 148.11008 -11.0437 C 157.62136 -27.51778 157.62136 -43.34926 149.2159 -57.90796 "/>
<path transform="matrix(-.49998,.86601,.86601,.49998,202.33789,88.319957)" d="M .91655 0 C -.22913 .22913 -1.37483 .68741 -2.74966 1.4894 C -1.37483 .45827 -1.37483 -.45827 -2.74966 -1.4894 C -1.37483 -.68741 -.22913 -.22913 .91655 0 Z "/>
<path transform="matrix(-.49998,.86601,.86601,.49998,202.33789,88.319957)" stroke-width=".59776" stroke-linecap="butt" stroke-linejoin="round" fill="none" stroke="#000000" d="M .91655 0 C -.22913 .22913 -1.37483 .68741 -2.74966 1.4894 C -1.37483 .45827 -1.37483 -.45827 -2.74966 -1.4894 C -1.37483 -.68741 -.22913 -.22913 .91655 0 Z "/>
<use xlink:href="#font_0_7" transform="matrix(9.9626,0,0,-9.9626,212.45125,68.445598)"/>
<use xlink:href="#font_0_2" transform="matrix(9.9626,0,0,-9.9626,217.11374,70.25879)"/>
<use xlink:href="#font_0_5" transform="matrix(9.9626,0,0,-9.9626,221.26816,68.336009)"/>
<use xlink:href="#font_1_1" transform="matrix(6.9738,0,0,-6.9738,227.84964,69.96948)"/>
<use xlink:href="#font_2_2" transform="matrix(9.9626,0,0,-9.9626,232.51491,70.82665)"/>
<symbol id="font_0_4">
<path d="M .11800001 .078 C .108 .039 .106 .031000002 .027000003 .031000002 C .009999998 .031000002 0 .031000002 0 .011000001 C 0 0 .009 0 .027000003 0 L .38400004 0 C .54200008 0 .66 .11800001 .66 .216 C .66 .28800003 .60200008 .34600003 .50500008 .35700003 C .609 .37600003 .71400007 .45000003 .71400007 .545 C .71400007 .619 .64800009 .683 .52800008 .683 L .192 .683 C .17300001 .683 .16300002 .683 .16300002 .66300007 C .16300002 .652 .17200002 .652 .19100002 .652 C .19300002 .652 .21200001 .652 .22900003 .65000006 C .24700001 .648 .256 .647 .256 .634 C .256 .63000008 .25500003 .62700006 .252 .615 L .11800001 .078 M .26900003 .36600004 L .33100004 .614 C .34000004 .64900007 .342 .652 .38500003 .652 L .51400008 .652 C .60200008 .652 .623 .59300008 .623 .549 C .623 .46100004 .53700008 .36600004 .41500003 .36600004 L .26900003 .36600004 M .224 .031000002 C .21000001 .031000002 .208 .031000002 .20200002 .032 C .192 .033 .18900001 .034 .18900001 .042000005 C .18900001 .045 .18900001 .047000003 .194 .065000008 L .263 .344 L .45200003 .344 C .54800006 .344 .56700006 .27 .56700006 .22700002 C .56700006 .128 .47800005 .031000002 .36 .031000002 L .224 .031000002 Z "/>
</symbol>
<use xlink:href="#font_0_4" transform="matrix(9.9626,0,0,-9.9626,237.35643,68.336009)"/>
<use xlink:href="#font_0_5" transform="matrix(9.9626,0,0,-9.9626,245.57558,68.336009)"/>
<use xlink:href="#font_1_1" transform="matrix(6.9738,0,0,-6.9738,252.15865,69.96948)"/>
<use xlink:href="#font_0_2" transform="matrix(9.9626,0,0,-9.9626,257.1218,70.25879)"/>
<use xlink:href="#font_0_1" transform="matrix(9.9626,0,0,-9.9626,261.1666,68.445598)"/>
<path transform="matrix(1,0,0,-1,53.122,30.411995)" stroke-width=".59776" stroke-linecap="butt" stroke-miterlimit="10" stroke-linejoin="miter" fill="none" stroke="#000000" d="M 154.05193 -67.56688 C 173.94127 -62.23749 173.94127 -79.4966 156.18828 -74.73956 "/>
<path transform="matrix(-.96593,-.25879,-.25879,.96593,209.31027,105.15157)" d="M .91655 0 C -.22913 .22913 -1.37483 .68741 -2.74966 1.4894 C -1.37483 .45827 -1.37483 -.45827 -2.74966 -1.4894 C -1.37483 -.68741 -.22913 -.22913 .91655 0 Z "/>
<path transform="matrix(-.96593,-.25879,-.25879,.96593,209.31027,105.15157)" stroke-width=".59776" stroke-linecap="butt" stroke-linejoin="round" fill="none" stroke="#000000" d="M .91655 0 C -.22913 .22913 -1.37483 .68741 -2.74966 1.4894 C -1.37483 .45827 -1.37483 -.45827 -2.74966 -1.4894 C -1.37483 -.68741 -.22913 -.22913 .91655 0 Z "/>
<use xlink:href="#font_0_7" transform="matrix(9.9626,0,0,-9.9626,226.17626,103.878589)"/>
<use xlink:href="#font_0_2" transform="matrix(9.9626,0,0,-9.9626,230.83875,105.69178)"/>
<use xlink:href="#font_0_5" transform="matrix(9.9626,0,0,-9.9626,234.99317,103.769)"/>
<use xlink:href="#font_1_1" transform="matrix(6.9738,0,0,-6.9738,241.57566,105.402469)"/>
<use xlink:href="#font_2_2" transform="matrix(9.9626,0,0,-9.9626,246.23992,106.25964)"/>
<use xlink:href="#font_0_4" transform="matrix(9.9626,0,0,-9.9626,251.08144,103.769)"/>
<use xlink:href="#font_0_5" transform="matrix(9.9626,0,0,-9.9626,259.3006,103.769)"/>
<use xlink:href="#font_1_1" transform="matrix(6.9738,0,0,-6.9738,265.88365,105.402469)"/>
<use xlink:href="#font_0_2" transform="matrix(9.9626,0,0,-9.9626,270.84678,105.69178)"/>
<use xlink:href="#font_0_1" transform="matrix(9.9626,0,0,-9.9626,274.89158,103.878589)"/>
<path transform="matrix(1,0,0,-1,53.122,30.411995)" stroke-width=".59776" stroke-linecap="butt" stroke-miterlimit="10" stroke-linejoin="miter" fill="none" stroke="#000000" d="M 130.69039 -77.24303 C 114.21631 -86.7543 98.38483 -86.7543 83.82611 -78.34885 "/>
<path transform="matrix(-.86601,-.49998,-.49998,.86601,136.94812,108.76084)" d="M .91655 0 C -.22913 .22913 -1.37483 .68741 -2.74966 1.4894 C -1.37483 .45827 -1.37483 -.45827 -2.74966 -1.4894 C -1.37483 -.68741 -.22913 -.22913 .91655 0 Z "/>
<path transform="matrix(-.86601,-.49998,-.49998,.86601,136.94812,108.76084)" stroke-width=".59776" stroke-linecap="butt" stroke-linejoin="round" fill="none" stroke="#000000" d="M .91655 0 C -.22913 .22913 -1.37483 .68741 -2.74966 1.4894 C -1.37483 .45827 -1.37483 -.45827 -2.74966 -1.4894 C -1.37483 -.68741 -.22913 -.22913 .91655 0 Z "/>
<symbol id="font_0_8">
<path d="M .35500003 .39100004 C .33900003 .39100004 .32500003 .39100004 .31100003 .37700004 C .29500003 .36200003 .293 .34500004 .293 .33800004 C .293 .314 .31100003 .30300004 .33 .30300004 C .359 .30300004 .386 .32700003 .386 .367 C .386 .41600005 .33900003 .45300005 .268 .45300005 C .13300002 .45300005 0 .31000004 0 .16900002 C 0 .079 .058000007 0 .162 0 C .305 0 .389 .106000009 .389 .11800001 C .389 .124000009 .38300003 .13100001 .377 .13100001 C .372 .13100001 .37 .12900001 .36400003 .12100001 C .285 .022000002 .176 .022000002 .164 .022000002 C .101 .022000002 .074 .071 .074 .13100001 C .074 .17200002 .094000007 .26900003 .12800002 .33100004 C .15900001 .388 .21400002 .43100003 .269 .43100003 C .303 .43100003 .34100003 .418 .35500003 .39100004 Z "/>
</symbol>
<use xlink:href="#font_0_8" transform="matrix(9.9626,0,0,-9.9626,142.54946,125.98859)"/>
<use xlink:href="#font_0_2" transform="matrix(9.9626,0,0,-9.9626,147.31159,127.80178)"/>
<use xlink:href="#font_0_4" transform="matrix(9.9626,0,0,-9.9626,151.3066,125.879)"/>
<use xlink:href="#font_2_2" transform="matrix(9.9626,0,0,-9.9626,159.4949,128.36965)"/>
<use xlink:href="#font_0_1" transform="matrix(9.9626,0,0,-9.9626,164.38625,125.98859)"/>
<use xlink:href="#font_0_2" transform="matrix(9.9626,0,0,-9.9626,168.8196,127.80178)"/>
<use xlink:href="#font_0_8" transform="matrix(9.9626,0,0,-9.9626,172.80464,125.98859)"/>
<path transform="matrix(1,0,0,-1,53.122,30.411995)" stroke-width=".59776" stroke-linecap="butt" stroke-miterlimit="10" stroke-linejoin="miter" fill="none" stroke="#000000" d="M 74.1672 -83.18489 C 79.4966 -103.07422 62.23749 -103.07422 66.99452 -85.32123 "/>
<path transform="matrix(.25879,-.96593,-.96593,-.25879,120.1165,115.73322)" d="M .91655 0 C -.22913 .22913 -1.37483 .68741 -2.74966 1.4894 C -1.37483 .45827 -1.37483 -.45827 -2.74966 -1.4894 C -1.37483 -.68741 -.22913 -.22913 .91655 0 Z "/>
<path transform="matrix(.25879,-.96593,-.96593,-.25879,120.1165,115.73322)" stroke-width=".59776" stroke-linecap="butt" stroke-linejoin="round" fill="none" stroke="#000000" d="M .91655 0 C -.22913 .22913 -1.37483 .68741 -2.74966 1.4894 C -1.37483 .45827 -1.37483 -.45827 -2.74966 -1.4894 C -1.37483 -.68741 -.22913 -.22913 .91655 0 Z "/>
<use xlink:href="#font_0_8" transform="matrix(9.9626,0,0,-9.9626,107.11647,139.7136)"/>
<use xlink:href="#font_0_2" transform="matrix(9.9626,0,0,-9.9626,111.878589,141.52678)"/>
<use xlink:href="#font_0_4" transform="matrix(9.9626,0,0,-9.9626,115.87359,139.604)"/>
<use xlink:href="#font_2_2" transform="matrix(9.9626,0,0,-9.9626,124.061908,142.09465)"/>
<use xlink:href="#font_0_1" transform="matrix(9.9626,0,0,-9.9626,128.95325,139.7136)"/>
<use xlink:href="#font_0_2" transform="matrix(9.9626,0,0,-9.9626,133.3866,141.52678)"/>
<use xlink:href="#font_0_8" transform="matrix(9.9626,0,0,-9.9626,137.37165,139.7136)"/>
<path transform="matrix(1,0,0,-1,53.122,30.411995)" stroke-width=".59776" stroke-linecap="butt" stroke-miterlimit="10" stroke-linejoin="miter" fill="none" stroke="#000000" d="M 59.82333 -77.24303 C 43.40233 -86.79092 27.78178 -86.83948 13.22124 -78.49237 "/>
<path transform="matrix(-.86752,-.49731,-.49731,.86752,66.34324,108.90439)" d="M .91655 0 C -.22913 .22913 -1.37483 .68741 -2.74966 1.4894 C -1.37483 .45827 -1.37483 -.45827 -2.74966 -1.4894 C -1.37483 -.68741 -.22913 -.22913 .91655 0 Z "/>
<path transform="matrix(-.86752,-.49731,-.49731,.86752,66.34324,108.90439)" stroke-width=".59776" stroke-linecap="butt" stroke-linejoin="round" fill="none" stroke="#000000" d="M .91655 0 C -.22913 .22913 -1.37483 .68741 -2.74966 1.4894 C -1.37483 .45827 -1.37483 -.45827 -2.74966 -1.4894 C -1.37483 -.68741 -.22913 -.22913 .91655 0 Z "/>
<use xlink:href="#font_0_1" transform="matrix(9.9626,0,0,-9.9626,66.94224,126.05258)"/>
<use xlink:href="#font_0_2" transform="matrix(9.9626,0,0,-9.9626,71.375598,127.865779)"/>
<use xlink:href="#font_0_5" transform="matrix(9.9626,0,0,-9.9626,75.53,125.94299)"/>
<use xlink:href="#font_1_1" transform="matrix(6.9738,0,0,-6.9738,82.10864,127.57647)"/>
<use xlink:href="#font_2_2" transform="matrix(9.9626,0,0,-9.9626,86.77391,128.43364)"/>
<use xlink:href="#font_0_5" transform="matrix(9.9626,0,0,-9.9626,91.77483,125.94299)"/>
<use xlink:href="#font_1_1" transform="matrix(6.9738,0,0,-6.9738,98.36065,127.57647)"/>
<use xlink:href="#font_0_2" transform="matrix(9.9626,0,0,-9.9626,103.32379,127.865779)"/>
<use xlink:href="#font_0_1" transform="matrix(9.9626,0,0,-9.9626,107.36861,126.05258)"/>
</g>
</svg>
