<?xml version="1.0" encoding="UTF-8" standalone="no"?>
<!DOCTYPE svg PUBLIC "-//W3C//DTD SVG 1.1//EN" "http://www.w3.org/Graphics/SVG/1.1/DTD/svg11.dtd">
<svg xmlns="http://www.w3.org/2000/svg" xmlns:xlink="http://www.w3.org/1999/xlink" version="1.1" width="279.37pt" height="54.498pt" viewBox="0 0 279.37 54.498">
<g enable-background="new">
<path transform="matrix(1,0,0,-1,53.421,41.148004)" stroke-width="1.7933" stroke-linecap="butt" stroke-miterlimit="10" stroke-linejoin="miter" fill="none" stroke="#000000" d="M 12.45346 0 C 12.45346 6.87794 6.87794 12.45346 0 12.45346 C -6.87794 12.45346 -12.45346 6.87794 -12.45346 0 C -12.45346 -6.87794 -6.87794 -12.45346 0 -12.45346 C 6.87794 -12.45346 12.45346 -6.87794 12.45346 0 Z M 0 0 "/>
<path transform="matrix(1,0,0,-1,53.421,41.148004)" stroke-width=".59776" stroke-linecap="butt" stroke-miterlimit="10" stroke-linejoin="miter" fill="none" stroke="#ffffff" d="M 12.45346 0 C 12.45346 6.87794 6.87794 12.45346 0 12.45346 C -6.87794 12.45346 -12.45346 6.87794 -12.45346 0 C -12.45346 -6.87794 -6.87794 -12.45346 0 -12.45346 C 6.87794 -12.45346 12.45346 -6.87794 12.45346 0 Z M 0 0 "/>
<symbol id="font_0_1">
<path d="M .41200004 .625 C .41200004 .62900009 .40900005 .635 .40200005 .635 C .39100004 .635 .35100005 .595 .33400003 .566 C .31200005 .62 .27300004 .63600006 .24100001 .63600006 C .122999999 .63600006 0 .488 0 .343 C 0 .245 .059000005 .183 .132 .183 C .175 .183 .214 .207 .25000004 .243 C .24100001 .208 .208 .073 .205 .063999999 C .19700001 .036 .18900001 .032000007 .133 .031000004 C .120000008 .031000004 .11 .031000004 .11 .0109999929 C .11 .00999999 .11 0 .122999999 0 C .155 0 .19 .0029999912 .223 .0029999912 C .25700004 .0029999912 .293 0 .32600004 0 C .33100004 0 .344 0 .344 .019999996 C .344 .031000004 .33400003 .031000004 .31800003 .031000004 C .27 .031000004 .27 .038000004 .27 .047000007 C .27 .054000006 .272 .060000004 .27400003 .069000009 L .41200004 .625 M .135 .20500002 C .075 .20500002 .07100001 .282 .07100001 .29900003 C .07100001 .347 .099999997 .45600004 .117 .49800004 C .148 .572 .2 .614 .24100001 .614 C .30600003 .614 .32000003 .533 .32000003 .526 C .32000003 .52 .26500003 .301 .26200003 .29700003 C .247 .269 .191 .20500002 .135 .20500002 Z "/>
</symbol>
<use xlink:href="#font_0_1" transform="matrix(9.9626,0,0,-9.9626,49.361505,44.256746)"/>
<symbol id="font_1_1">
<path d="M .46400006 .33900003 C .46400006 .44900004 .45100004 .528 .40500004 .598 C .374 .644 .31200005 .684 .23200001 .684 C 0 .684 0 .41100005 0 .33900003 C 0 .26700003 0 0 .23200001 0 C .46400006 0 .46400006 .26700003 .46400006 .33900003 M .23200001 .028 C .186 .028 .125 .055 .105000007 .13700001 C .091000009 .19600001 .091000009 .27800004 .091000009 .35200004 C .091000009 .42500005 .091000009 .50100007 .106000009 .556 C .127 .635 .19100002 .656 .23200001 .656 C .286 .656 .338 .623 .356 .565 C .37200005 .51100006 .37300004 .43900005 .37300004 .35200004 C .37300004 .27800004 .37300004 .20400001 .36 .141 C .34000004 .050000006 .272 .028 .23200001 .028 Z "/>
</symbol>
<use xlink:href="#font_1_1" transform="matrix(6.9738,0,0,-6.9738,53.772638,43.958478)"/>
<path transform="matrix(1,0,0,-1,53.421,41.148004)" stroke-width=".59776" stroke-linecap="butt" stroke-miterlimit="10" stroke-linejoin="miter" fill="none" stroke="#000000" d="M -25.91977 0 L -15.26295 0 "/>
<path transform="matrix(1,0,0,-1,38.15805,41.148004)" d="M .91655 0 C -.22913 .22913 -1.37483 .68741 -2.74966 1.4894 C -1.37483 .45827 -1.37483 -.45827 -2.74966 -1.4894 C -1.37483 -.68741 -.22913 -.22913 .91655 0 Z "/>
<path transform="matrix(1,0,0,-1,38.15805,41.148004)" stroke-width=".59776" stroke-linecap="butt" stroke-linejoin="round" fill="none" stroke="#000000" d="M .91655 0 C -.22913 .22913 -1.37483 .68741 -2.74966 1.4894 C -1.37483 .45827 -1.37483 -.45827 -2.74966 -1.4894 C -1.37483 -.68741 -.22913 -.22913 .91655 0 Z "/>
<symbol id="font_2_3">
<path d="M .17500001 .20500002 C .197 .20100002 .279 .18500002 .279 .113000009 C .279 .062000004 .24400002 .022000002 .16600001 .022000002 C .082 .022000002 .046000005 .079 .027000003 .16400002 C .024000004 .17700002 .023000002 .18100001 .013000004 .18100001 C 0 .18100001 0 .17400001 0 .15600002 L 0 .024 C 0 .0070000009 0 0 .011000004 0 C .016000003 0 .017 .0010000002 .036000007 .020000002 C .038000004 .022000002 .038000004 .024 .056 .043 C .1 .0010000002 .14500001 0 .16600001 0 C .28100003 0 .32700003 .067 .32700003 .13900002 C .32700003 .19200002 .29700003 .22200002 .28500004 .23400001 C .25200004 .26600004 .213 .27400003 .171 .28200004 C .115 .293 .048 .30600003 .048 .36400003 C .048 .39900003 .07400001 .44000004 .16 .44000004 C .27 .44000004 .27500005 .35000003 .277 .31900005 C .27800004 .31000004 .28700004 .31000004 .28900004 .31000004 C .30200003 .31000004 .30200003 .31500004 .30200003 .33400003 L .30200003 .43500004 C .30200003 .45200003 .30200003 .45900003 .291 .45900003 C .286 .45900003 .284 .45900003 .27100004 .44700004 C .26800005 .44300003 .25800003 .43400003 .254 .43100003 C .21600002 .45900003 .17500001 .45900003 .16 .45900003 C .038000004 .45900003 0 .39200003 0 .33600004 C 0 .30100004 .016000003 .27300004 .043000007 .25100003 C .075 .22500003 .10300001 .21900001 .17500001 .20500002 Z "/>
</symbol>
<symbol id="font_2_4">
<path d="M .15400002 .411 L .29700003 .411 L .29700003 .44200004 L .15400002 .44200004 L .15400002 .626 L .12900001 .626 C .12799999 .544 .098000008 .43700005 0 .43300004 L 0 .411 L .085 .411 L .085 .135 C .085 .012000001 .178 0 .21400002 0 C .28500004 0 .31300003 .071 .31300003 .135 L .31300003 .19200002 L .28800003 .19200002 L .28800003 .13700001 C .28800003 .063 .25800003 .025000003 .22100002 .025000003 C .15400002 .025000003 .15400002 .116000007 .15400002 .13300002 L .15400002 .411 Z "/>
</symbol>
<symbol id="font_2_1">
<path d="M .291 .087000008 C .29500003 .047000003 .32200004 .005000001 .36900003 .005000001 C .39000003 .005000001 .45100004 .019000002 .45100004 .1 L .45100004 .15600002 L .42600004 .15600002 L .42600004 .1 C .42600004 .042000005 .40100003 .036000004 .39000003 .036000004 C .35700003 .036000004 .35300002 .081 .35300002 .086 L .35300002 .286 C .35300002 .328 .35300002 .367 .31700004 .404 C .27800004 .44300003 .22800002 .45900003 .18 .45900003 C .098 .45900003 .029 .41200004 .029 .34600003 C .029 .316 .049000004 .29900003 .075 .29900003 C .10300001 .29900003 .121 .31900005 .121 .34500004 C .121 .35700003 .116000007 .39000003 .07 .39100004 C .09700001 .42600004 .146 .43700005 .178 .43700005 C .22700003 .43700005 .284 .39800004 .284 .30900003 L .284 .272 C .23300001 .26900003 .16300002 .26600004 .1 .23600002 C .024999999 .20200002 0 .15000002 0 .106000009 C 0 .025000003 .09700001 0 .16 0 C .22600001 0 .272 .040000004 .291 .087000008 M .284 .25100003 L .284 .15100001 C .284 .056 .21200001 .022000002 .167 .022000002 C .11800001 .022000002 .077 .057000005 .077 .107 C .077 .16200002 .11900001 .24500002 .284 .25100003 Z "/>
</symbol>
<symbol id="font_2_2">
<path d="M .13900002 .33200003 L .13900002 .44200004 L 0 .43100003 L 0 .4 C .07000001 .4 .07800001 .393 .07800001 .344 L .07800001 .076000008 C .07800001 .031000002 .067 .031000002 0 .031000002 L 0 0 C .039 .001 .08600001 .003 .11400001 .003 C .15400002 .003 .20100002 .003 .24100003 0 L .24100003 .031000002 L .22000002 .031000002 C .14600002 .031000002 .14400001 .042000005 .14400001 .078 L .14400001 .23200001 C .14400001 .33100004 .18600002 .42000003 .26200003 .42000003 C .26900003 .42000003 .27100004 .42000003 .27300004 .41900004 C .27 .418 .25000004 .40600003 .25000004 .38000003 C .25000004 .35200004 .27100004 .337 .293 .337 C .31100003 .337 .33600004 .349 .33600004 .381 C .33600004 .41300003 .305 .44200004 .26200003 .44200004 C .18900001 .44200004 .15300001 .37500004 .13900002 .33200003 Z "/>
</symbol>
<use xlink:href="#font_2_3" transform="matrix(9.9626,0,0,-9.9626,3.6497689,44.32159)"/>
<use xlink:href="#font_2_4" transform="matrix(9.9626,0,0,-9.9626,7.435557,44.32159)"/>
<use xlink:href="#font_2_1" transform="matrix(9.9626,0,0,-9.9626,11.540148,44.32159)"/>
<use xlink:href="#font_2_2" transform="matrix(9.9626,0,0,-9.9626,16.381974,44.212)"/>
<use xlink:href="#font_2_4" transform="matrix(9.9626,0,0,-9.9626,20.197648,44.32159)"/>
<path transform="matrix(1,0,0,-1,53.421,41.148004)" stroke-width=".59776" stroke-linecap="butt" stroke-miterlimit="10" stroke-linejoin="miter" fill="none" stroke="#000000" d="M 83.32051 0 C 83.32051 6.87794 77.745 12.45346 70.86703 12.45346 C 63.98909 12.45346 58.41356 6.87794 58.41356 0 C 58.41356 -6.87794 63.98909 -12.45346 70.86703 -12.45346 C 77.745 -12.45346 83.32051 -6.87794 83.32051 0 Z M 70.86703 0 "/>
<use xlink:href="#font_0_1" transform="matrix(9.9626,0,0,-9.9626,120.2275,44.256746)"/>
<symbol id="font_1_2">
<path d="M .22600001 .63600006 C .22600001 .66300007 .224 .66400006 .19600001 .66400006 C .132 .601 .041 .6 0 .6 L 0 .564 C .023999997 .564 .09000001 .564 .14500001 .592 L .14500001 .082 C .14500001 .049000004 .14500001 .036000004 .04500001 .036000004 L .0069999995 .036000004 L .0069999995 0 C .024999999 .001 .148 .004 .185 .004 C .21600002 .004 .34200005 .001 .36400003 0 L .36400003 .036000004 L .32600004 .036000004 C .22600001 .036000004 .22600001 .049000004 .22600001 .082 L .22600001 .63600006 Z "/>
</symbol>
<use xlink:href="#font_1_2" transform="matrix(6.9738,0,0,-6.9738,125.03614,43.819)"/>
<path transform="matrix(1,0,0,-1,53.421,41.148004)" stroke-width=".59776" stroke-linecap="butt" stroke-miterlimit="10" stroke-linejoin="miter" fill="none" stroke="#000000" d="M 154.18756 0 C 154.18756 6.87794 148.61205 12.45346 141.73409 12.45346 C 134.85614 12.45346 129.28061 6.87794 129.28061 0 C 129.28061 -6.87794 134.85614 -12.45346 141.73409 -12.45346 C 148.61205 -12.45346 154.18756 -6.87794 154.18756 0 Z M 141.73409 0 "/>
<use xlink:href="#font_0_1" transform="matrix(9.9626,0,0,-9.9626,191.0935,44.256746)"/>
<symbol id="font_1_3">
<path d="M .442 .18200001 L .40800003 .18200001 C .40500004 .16000001 .39500005 .101 .38200004 .091000009 C .374 .085 .29700003 .085 .28300003 .085 L .099 .085 C .20400003 .178 .23900002 .20600002 .29900003 .25300003 C .37300004 .312 .442 .374 .442 .469 C .442 .59000006 .33600004 .66400006 .20800004 .66400006 C .084 .66400006 0 .577 0 .485 C 0 .43400003 .043000007 .42900003 .053000004 .42900003 C .077 .42900003 .10600001 .446 .10600001 .48200003 C .10600001 .5 .099 .535 .047000007 .535 C .078 .606 .146 .628 .19300002 .628 C .293 .628 .34500004 .55 .34500004 .469 C .34500004 .38200004 .28300003 .31300003 .25100003 .277 L .010000005 .039 C 0 .030000002 0 .028 0 0 L .41200004 0 L .442 .18200001 Z "/>
</symbol>
<use xlink:href="#font_1_3" transform="matrix(6.9738,0,0,-6.9738,195.58136,43.819)"/>
<path transform="matrix(1,0,0,-1,53.421,41.148004)" stroke-width="1.7933" stroke-linecap="butt" stroke-miterlimit="10" stroke-linejoin="miter" fill="none" stroke="#000000" d="M 225.05461 0 C 225.05461 6.87794 219.47908 12.45346 212.60114 12.45346 C 205.72318 12.45346 200.14766 6.87794 200.14766 0 C 200.14766 -6.87794 205.72318 -12.45346 212.60114 -12.45346 C 219.47908 -12.45346 225.05461 -6.87794 225.05461 0 Z M 212.60114 0 "/>
<path transform="matrix(1,0,0,-1,53.421,41.148004)" stroke-width=".59776" stroke-linecap="butt" stroke-miterlimit="10" stroke-linejoin="miter" fill="none" stroke="#ffffff" d="M 225.05461 0 C 225.05461 6.87794 219.47908 12.45346 212.60114 12.45346 C 205.72318 12.45346 200.14766 6.87794 200.14766 0 C 200.14766 -6.87794 205.72318 -12.45346 212.60114 -12.45346 C 219.47908 -12.45346 225.05461 -6.87794 225.05461 0 Z M 212.60114 0 "/>
<use xlink:href="#font_0_1" transform="matrix(9.9626,0,0,-9.9626,261.9595,44.256746)"/>
<symbol id="font_1_4">
<path d="M .219 .35400004 C .29700003 .35400004 .35300002 .3 .35300002 .193 C .35300002 .069000009 .28100003 .032 .223 .032 C .18300002 .032 .095 .043000007 .053000008 .102000009 C .10000001 .10400001 .111 .13700001 .111 .158 C .111 .19 .087 .213 .056000007 .213 C .028 .213 0 .19600001 0 .155 C 0 .061000006 .104 0 .22500001 0 C .36400003 0 .46 .09300001 .46 .193 C .46 .27100004 .39600004 .34900005 .286 .37200005 C .39100004 .41000004 .42900003 .48500005 .42900003 .546 C .42900003 .625 .33800004 .684 .22700002 .684 C .116 .684 .031 .63 .031 .55 C .031 .51600006 .053000008 .49700005 .083000008 .49700005 C .11400001 .49700005 .134 .52 .134 .548 C .134 .577 .11400001 .598 .083000008 .6 C .118 .644 .187 .65500006 .22400002 .65500006 C .26900003 .65500006 .33200003 .633 .33200003 .546 C .33200003 .504 .31800003 .45800004 .29200004 .42700003 C .25900004 .38900004 .23100002 .38700003 .18100001 .38400004 C .156 .38200004 .154 .38200004 .149 .38100005 C .147 .38100005 .139 .37900005 .139 .36800004 C .139 .35400004 .148 .35400004 .165 .35400004 L .219 .35400004 Z "/>
</symbol>
<use xlink:href="#font_1_4" transform="matrix(6.9738,0,0,-6.9738,266.3856,43.958478)"/>
<path transform="matrix(1,0,0,-1,53.421,41.148004)" stroke-width=".59776" stroke-linecap="butt" stroke-miterlimit="10" stroke-linejoin="miter" fill="none" stroke="#000000" d="M 13.05124 0 L 55.90295 0 "/>
<path transform="matrix(1,0,0,-1,109.32395,41.148004)" d="M .91655 0 C -.22913 .22913 -1.37483 .68741 -2.74966 1.4894 C -1.37483 .45827 -1.37483 -.45827 -2.74966 -1.4894 C -1.37483 -.68741 -.22913 -.22913 .91655 0 Z "/>
<path transform="matrix(1,0,0,-1,109.32395,41.148004)" stroke-width=".59776" stroke-linecap="butt" stroke-linejoin="round" fill="none" stroke="#000000" d="M .91655 0 C -.22913 .22913 -1.37483 .68741 -2.74966 1.4894 C -1.37483 .45827 -1.37483 -.45827 -2.74966 -1.4894 C -1.37483 -.68741 -.22913 -.22913 .91655 0 Z "/>
<use xlink:href="#font_1_1" transform="matrix(6.9738,0,0,-6.9738,75.19264,35.92448)"/>
<symbol id="font_3_2">
<path d="M .09900001 .209 C .09900001 .154 .089 .089999999 .020999998 .025999994 C .017000005 .022 .013999999 .018999994 .013999999 .013999999 C .013999999 .0069999995 .022 0 .027999998 0 C .04200001 0 .127 .08 .127 .199 C .127 .261 .103 .308 .05700001 .308 C .024000004 .308 0 .282 0 .25100003 C 0 .21900001 .023000002 .193 .058 .193 C .082 .193 .098000008 .209 .09900001 .209 Z "/>
</symbol>
<symbol id="font_3_5">
<path d="M .70300009 .64400008 C .711 .652 .71700009 .65900006 .71700009 .67200008 C .71700009 .683 .70900008 .683 .69000008 .683 L .22299999 .683 C .197 .683 .19600001 .68200007 .19 .66300007 L .134 .483 C .13 .47100003 .13 .47000004 .13 .467 C .13 .462 .134 .453 .14700002 .453 C .16 .453 .162 .45900003 .16499999 .469 C .213 .61 .291 .647 .42 .647 L .6 .647 L .016999998 .044000005 C .009999998 .037 0 .027 0 .011000001 C 0 0 .008999996 0 .027000003 0 L .51100006 0 C .53700008 0 .53800007 .001 .544 .020000002 L .61600008 .24300002 C .62000009 .256 .62000009 .25800003 .62000009 .259 C .62000009 .26000003 .62000009 .273 .60400006 .273 C .591 .273 .58900007 .26900003 .5820001 .24700001 C .5360001 .11000001 .48499999 .040000004 .31100003 .040000004 L .12 .040000004 L .70300009 .64400008 Z "/>
</symbol>
<use xlink:href="#font_3_2" transform="matrix(6.9738,0,0,-6.9738,79.58307,37.130949)"/>
<use xlink:href="#font_3_5" transform="matrix(6.9738,0,0,-6.9738,83.08392,35.785005)"/>
<symbol id="font_4_1">
<path d="M .522 .34200005 C .522 .41400004 .522 .688 .261 .688 C 0 .688 0 .41400004 0 .34200005 C 0 .26900003 0 0 .261 0 C .522 0 .522 .26900003 .522 .34200005 M .261 .033000005 C .224 .033000005 .14000002 .046000005 .115 .147 C .101 .201 .1 .272 .1 .35400004 C .1 .42800004 .1 .49700005 .116000007 .554 C .141 .6380001 .21800003 .65500006 .261 .65500006 C .33500005 .65500006 .388 .61700007 .40800003 .54700008 C .42200006 .49600006 .42200006 .41300006 .42200006 .35400004 C .42200006 .286 .42200006 .20500002 .40700004 .14500001 C .381 .048 .30100004 .033000005 .261 .033000005 Z "/>
</symbol>
<use xlink:href="#font_4_1" transform="matrix(4.9813,0,0,-4.9813,88.350528,36.89059)"/>
<symbol id="font_3_3">
<path d="M .42400003 .95600005 C .43 .96900007 .43 .971 .43 .975 C .43 .99100008 .417 1 .40600003 1 C .389 1 .384 .98800006 .379 .975 L .0059999974 .043999986 C 0 .030999989 0 .028999985 0 .024999991 C 0 .008999988 .012999997 0 .023999997 0 C .041 0 .045999998 .0119999949 .051 .024999991 L .42400003 .95600005 Z "/>
</symbol>
<symbol id="font_3_4">
<path d="M .14900002 .120000008 C .114 .066 .08200001 .040000004 .023000002 .036000004 C .012999997 .035 0 .035 0 .015000001 C 0 .004 .008999996 0 .013999999 0 C .04 0 .07300001 .004 .1 .004 C .132 .004 .17300001 0 .20300001 0 C .208 0 .22299999 0 .22299999 .022000002 C .22299999 .035 .21000001 .036000004 .206 .036000004 C .19800002 .037 .162 .039 .162 .066 C .162 .078 .17200002 .095000009 .17700002 .104 L .257 .22800002 L .54300007 .22800002 L .56700006 .062000004 C .563 .052 .55700007 .036000004 .498 .036000004 C .48600004 .036000004 .47200004 .036000004 .47200004 .014 C .47200004 .010000001 .475 0 .488 0 C .517 0 .58800008 .004 .61700007 .004 C .63500007 .004 .65800008 .003 .67600008 .003 C .69400009 .002 .71500006 0 .73300006 0 C .74600008 0 .7530001 .008 .7530001 .021000002 C .7530001 .036000004 .74100008 .036000004 .7250001 .036000004 C .66700008 .036000004 .6650001 .044000005 .66200008 .068 L .57400009 .68500009 C .57100006 .70600005 .56900009 .71300008 .5500001 .71300008 C .531 .71300008 .52500006 .70400008 .51600006 .69000008 L .14900002 .120000008 M .28100003 .264 L .49100004 .591 L .53800007 .264 L .28100003 .264 Z "/>
</symbol>
<use xlink:href="#font_3_3" transform="matrix(6.9738,0,0,-6.9738,92.38198,37.528455)"/>
<use xlink:href="#font_3_4" transform="matrix(6.9738,0,0,-6.9738,95.89678,35.785005)"/>
<use xlink:href="#font_3_5" transform="matrix(6.9738,0,0,-6.9738,102.047679,35.785005)"/>
<use xlink:href="#font_4_1" transform="matrix(4.9813,0,0,-4.9813,107.31152,36.89059)"/>
<path transform="matrix(1,0,0,-1,53.421,41.148004)" stroke-width=".59776" stroke-linecap="butt" stroke-miterlimit="10" stroke-linejoin="miter" fill="none" stroke="#000000" d="M 67.56688 12.31784 C 62.23749 32.20718 79.4966 32.20718 74.73956 14.45418 "/>
<path transform="matrix(-.25879,.96593,.96593,.25879,128.16059,26.693823)" d="M .91655 0 C -.22913 .22913 -1.37483 .68741 -2.74966 1.4894 C -1.37483 .45827 -1.37483 -.45827 -2.74966 -1.4894 C -1.37483 -.68741 -.22913 -.22913 .91655 0 Z "/>
<path transform="matrix(-.25879,.96593,.96593,.25879,128.16059,26.693823)" stroke-width=".59776" stroke-linecap="butt" stroke-linejoin="round" fill="none" stroke="#000000" d="M .91655 0 C -.22913 .22913 -1.37483 .68741 -2.74966 1.4894 C -1.37483 .45827 -1.37483 -.45827 -2.74966 -1.4894 C -1.37483 -.68741 -.22913 -.22913 .91655 0 Z "/>
<use xlink:href="#font_1_1" transform="matrix(6.9738,0,0,-6.9738,110.47664,8.690478)"/>
<use xlink:href="#font_3_2" transform="matrix(6.9738,0,0,-6.9738,114.866069,9.896946)"/>
<use xlink:href="#font_3_4" transform="matrix(6.9738,0,0,-6.9738,118.20652,8.5510029)"/>
<use xlink:href="#font_3_3" transform="matrix(6.9738,0,0,-6.9738,124.33649,10.294453)"/>
<use xlink:href="#font_3_4" transform="matrix(6.9738,0,0,-6.9738,127.85129,8.5510029)"/>
<use xlink:href="#font_3_4" transform="matrix(6.9738,0,0,-6.9738,133.84178,8.5510029)"/>
<path transform="matrix(1,0,0,-1,53.421,41.148004)" stroke-width=".59776" stroke-linecap="butt" stroke-miterlimit="10" stroke-linejoin="miter" fill="none" stroke="#000000" d="M 83.6194 0 L 126.77 0 "/>
<path transform="matrix(1,0,0,-1,180.191,41.148004)" d="M .91655 0 C -.22913 .22913 -1.37483 .68741 -2.74966 1.4894 C -1.37483 .45827 -1.37483 -.45827 -2.74966 -1.4894 C -1.37483 -.68741 -.22913 -.22913 .91655 0 Z "/>
<path transform="matrix(1,0,0,-1,180.191,41.148004)" stroke-width=".59776" stroke-linecap="butt" stroke-linejoin="round" fill="none" stroke="#000000" d="M .91655 0 C -.22913 .22913 -1.37483 .68741 -2.74966 1.4894 C -1.37483 .45827 -1.37483 -.45827 -2.74966 -1.4894 C -1.37483 -.68741 -.22913 -.22913 .91655 0 Z "/>
<use xlink:href="#font_1_2" transform="matrix(6.9738,0,0,-6.9738,146.30715,35.785005)"/>
<symbol id="font_3_1">
<path d="M .28100003 .23400001 C .296 .23400001 .315 .23400001 .315 .25300003 C .315 .27 .3 .27 .28100003 .27 L .102 .27 C .132 .361 .19700001 .405 .28500004 .405 L .323 .405 C .339 .405 .35800005 .405 .35800005 .42400003 C .35800005 .441 .34400005 .441 .325 .441 L .282 .441 C .149 .441 0 .34800003 0 .19600001 C 0 .079 .089 0 .205 0 C .235 0 .277 .0050000005 .33000005 .035 C .35000003 .046000005 .352 .049000004 .352 .055000005 C .352 .058000003 .352 .075 .337 .075 C .333 .075 .33100004 .074 .325 .07 C .29000003 .047000003 .24800001 .028 .207 .028 C .16700001 .028 .08400001 .048000006 .08400001 .16200002 C .08400001 .17600002 .08400001 .19600001 .09300001 .23400001 L .28100003 .23400001 Z "/>
</symbol>
<use xlink:href="#font_3_2" transform="matrix(6.9738,0,0,-6.9738,150.29906,37.130949)"/>
<use xlink:href="#font_3_4" transform="matrix(6.9738,0,0,-6.9738,153.63951,35.785005)"/>
<use xlink:href="#font_3_3" transform="matrix(6.9738,0,0,-6.9738,159.76949,37.528455)"/>
<use xlink:href="#font_3_1" transform="matrix(6.9738,0,0,-6.9738,163.78638,35.85474)"/>
<path transform="matrix(1,0,0,-1,53.421,41.148004)" stroke-width=".59776" stroke-linecap="butt" stroke-miterlimit="10" stroke-linejoin="miter" fill="none" stroke="#000000" d="M 138.43392 12.31784 C 133.10454 32.20718 150.36365 32.20718 145.60662 14.45418 "/>
<path transform="matrix(-.25879,.96593,.96593,.25879,199.02764,26.693823)" d="M .91655 0 C -.22913 .22913 -1.37483 .68741 -2.74966 1.4894 C -1.37483 .45827 -1.37483 -.45827 -2.74966 -1.4894 C -1.37483 -.68741 -.22913 -.22913 .91655 0 Z "/>
<path transform="matrix(-.25879,.96593,.96593,.25879,199.02764,26.693823)" stroke-width=".59776" stroke-linecap="butt" stroke-linejoin="round" fill="none" stroke="#000000" d="M .91655 0 C -.22913 .22913 -1.37483 .68741 -2.74966 1.4894 C -1.37483 .45827 -1.37483 -.45827 -2.74966 -1.4894 C -1.37483 -.68741 -.22913 -.22913 .91655 0 Z "/>
<use xlink:href="#font_1_2" transform="matrix(6.9738,0,0,-6.9738,181.74015,8.5510029)"/>
<use xlink:href="#font_3_2" transform="matrix(6.9738,0,0,-6.9738,185.73206,9.896946)"/>
<use xlink:href="#font_3_4" transform="matrix(6.9738,0,0,-6.9738,189.07251,8.5510029)"/>
<use xlink:href="#font_3_3" transform="matrix(6.9738,0,0,-6.9738,195.20249,10.294453)"/>
<use xlink:href="#font_3_1" transform="matrix(6.9738,0,0,-6.9738,199.21938,8.620741)"/>
<path transform="matrix(1,0,0,-1,53.421,41.148004)" stroke-width=".59776" stroke-linecap="butt" stroke-miterlimit="10" stroke-linejoin="miter" fill="none" stroke="#000000" d="M 154.48645 0 L 197.33817 0 "/>
<path transform="matrix(1,0,0,-1,250.75917,41.148004)" d="M .91655 0 C -.22913 .22913 -1.37483 .68741 -2.74966 1.4894 C -1.37483 .45827 -1.37483 -.45827 -2.74966 -1.4894 C -1.37483 -.68741 -.22913 -.22913 .91655 0 Z "/>
<path transform="matrix(1,0,0,-1,250.75917,41.148004)" stroke-width=".59776" stroke-linecap="butt" stroke-linejoin="round" fill="none" stroke="#000000" d="M .91655 0 C -.22913 .22913 -1.37483 .68741 -2.74966 1.4894 C -1.37483 .45827 -1.37483 -.45827 -2.74966 -1.4894 C -1.37483 -.68741 -.22913 -.22913 .91655 0 Z "/>
<use xlink:href="#font_3_1" transform="matrix(6.9738,0,0,-6.9738,216.73822,35.85474)"/>
<use xlink:href="#font_3_2" transform="matrix(6.9738,0,0,-6.9738,220.36461,37.130949)"/>
<use xlink:href="#font_3_5" transform="matrix(6.9738,0,0,-6.9738,223.86547,35.785005)"/>
<use xlink:href="#font_4_1" transform="matrix(4.9813,0,0,-4.9813,229.13254,36.89059)"/>
<use xlink:href="#font_3_3" transform="matrix(6.9738,0,0,-6.9738,233.16501,37.528455)"/>
<use xlink:href="#font_3_5" transform="matrix(6.9738,0,0,-6.9738,236.83322,35.785005)"/>
<use xlink:href="#font_4_1" transform="matrix(4.9813,0,0,-4.9813,242.10254,36.89059)"/>
</g>
</svg>
